<svg width="122" height="122" viewBox="0 0 122 122" fill="none" xmlns="http://www.w3.org/2000/svg">
    <path fill-rule="evenodd" clip-rule="evenodd"
        d="M122 60.9999C122 94.744 94.5732 122.079 60.7877 122L0 121.86V20.357H61.0014C83.4337 20.357 101.62 38.5221 101.62 60.9288C101.62 83.3382 83.4337 101.503 61.0014 101.503H20.3804V40.714H61.0014C66.3284 40.7759 71.4162 42.9331 75.1612 46.7176C78.9062 50.5022 81.0065 55.6089 81.0065 60.9301C81.0065 66.2514 78.9062 71.3581 75.1612 75.1426C71.4162 78.9272 66.3284 81.0843 61.0014 81.1462H40.7607V61.0711H50.6701V71.2509H60.9986C63.739 71.2509 66.3672 70.1636 68.3049 68.228C70.2427 66.2925 71.3313 63.6674 71.3313 60.9301C71.3313 58.1929 70.2427 55.5677 68.3049 53.6322C66.3672 51.6967 63.739 50.6093 60.9986 50.6093H30.287V91.6052H60.9986C77.9626 91.6052 91.713 77.8733 91.713 60.9288C91.713 43.9869 77.9599 30.2523 61.0014 30.2523H9.90389V111.965H60.9986C89.2172 111.965 112.091 89.115 112.091 60.9288C112.091 32.7425 89.2144 9.89528 60.9959 9.89528H0.00274156V0H60.9329C94.6582 0 122 27.3133 122 60.9999Z"
        fill="url(#paint0_radial_170_3)" />
    <defs>
        <radialGradient id="paint0_radial_170_3" cx="0" cy="0" r="1" gradientUnits="userSpaceOnUse"
            gradientTransform="translate(61) rotate(90) scale(142.096 134.263)">
            <stop offset="0.0344584" stop-color="#6DA3FF" />
            <stop offset="0.517229" stop-color="#4736FF" />
            <stop offset="1" stop-color="#9123FF" />
        </radialGradient>
    </defs>
</svg>