<svg width="114" height="114" viewBox="0 0 114 114" fill="none" xmlns="http://www.w3.org/2000/svg">
    <rect x="0.5" y="0.5" width="113" height="113" rx="19.5" fill="url(#paint0_radial_107_897)" />
    <rect x="0.5" y="0.5" width="113" height="113" rx="19.5" stroke="url(#paint1_linear_107_897)" />
    <path d="M33.9784 3.1084H38.5047V7.60187H33.9784V3.1084Z" fill="white" fill-opacity="0.15" />
    <path d="M86.3899 11.977H90.916V16.4703H86.3899V11.977Z" fill="white" fill-opacity="0.15" />
    <path d="M99.8751 20.93H104.401V25.4233H99.8751V20.93Z" fill="white" fill-opacity="0.15" />
    <path d="M95.4081 52.1387H99.9343V56.632H95.4081V52.1387Z" fill="white" fill-opacity="0.15" />
    <path d="M7.00796 20.93H11.5342V25.4235H7.00796V20.93Z" fill="white" fill-opacity="0.15" />
    <path d="M20.4932 29.8823H25.0195V34.3758H20.4932V29.8823Z" fill="white" fill-opacity="0.15" />
    <path d="M2.54102 43.1864H7.06732V47.6799H2.54102V43.1864Z" fill="white" fill-opacity="0.15" />
    <path d="M33.9784 20.93H38.5047V25.4235H33.9784V20.93Z" fill="white" fill-opacity="0.15" />
    <path d="M7.00796 61.139H11.5342V65.6325H7.00796V61.139Z" fill="white" fill-opacity="0.15" />
    <path d="M20.4932 78.9606H25.0195V83.4541H20.4932V78.9606Z" fill="white" fill-opacity="0.15" />
    <path d="M33.9784 87.9145H38.5047V92.4079H33.9784V87.9145Z" fill="white" fill-opacity="0.15" />
    <path d="M108.893 65.5737H113.419V70.067H108.893V65.5737Z" fill="white" fill-opacity="0.15" />
    <path d="M95.4081 74.4424H99.9343V78.9358H95.4081V74.4424Z" fill="white" fill-opacity="0.15" />
    <path d="M104.342 87.9136H108.868V92.4069H104.342V87.9136Z" fill="white" fill-opacity="0.15" />
    <path d="M86.3899 96.7831H90.916V101.276H86.3899V96.7831Z" fill="white" fill-opacity="0.15" />
    <path d="M99.8751 105.736H104.401V110.229H99.8751V105.736Z" fill="white" fill-opacity="0.15" />
    <path d="M33.9784 105.736H38.5047V110.23H33.9784V105.736Z" fill="white" fill-opacity="0.15" />
    <g filter="url(#filter0_d_107_897)">
        <path fill-rule="evenodd" clip-rule="evenodd"
            d="M100.5 56.9999C100.5 79.6804 81.616 98.0532 58.3538 97.9999L16.5 97.9061V29.6826H58.5009C73.9462 29.6826 86.4676 41.8919 86.4676 56.9521C86.4676 72.0142 73.9462 84.2235 58.5009 84.2235H30.5324V43.3652H58.5009C62.1687 43.4068 65.6718 44.8567 68.2503 47.4004C70.8289 49.9441 72.275 53.3765 72.275 56.953C72.275 60.5296 70.8289 63.962 68.2503 66.5057C65.6718 69.0494 62.1687 70.4993 58.5009 70.5409H44.5648V57.0478H51.3876V63.89H58.4991C60.3859 63.89 62.1954 63.1591 63.5296 61.8582C64.8638 60.5573 65.6133 58.7928 65.6133 56.953C65.6133 55.1133 64.8638 53.3488 63.5296 52.0479C62.1954 50.747 60.3859 50.0161 58.4991 50.0161H37.3533V77.5707H58.4991C70.1792 77.5707 79.6467 68.3411 79.6467 56.9521C79.6467 45.565 70.1773 36.3335 58.5009 36.3335H23.3191V91.2552H58.4991C77.9282 91.2552 93.6772 75.897 93.6772 56.9521C93.6772 38.0073 77.9263 22.6509 58.4972 22.6509H16.5019V16H58.4538C81.6745 16 100.5 34.3581 100.5 56.9999Z"
            fill="white" />
    </g>
    <defs>
        <filter id="filter0_d_107_897" x="14.5" y="15" width="88" height="86" filterUnits="userSpaceOnUse"
            color-interpolation-filters="sRGB">
            <feFlood flood-opacity="0" result="BackgroundImageFix" />
            <feColorMatrix in="SourceAlpha" type="matrix" values="0 0 0 0 0 0 0 0 0 0 0 0 0 0 0 0 0 0 127 0"
                result="hardAlpha" />
            <feOffset dy="1" />
            <feGaussianBlur stdDeviation="1" />
            <feComposite in2="hardAlpha" operator="out" />
            <feColorMatrix type="matrix" values="0 0 0 0 0.469231 0 0 0 0 0.0303454 0 0 0 0 0 0 0 0 0.6 0" />
            <feBlend mode="normal" in2="BackgroundImageFix" result="effect1_dropShadow_107_897" />
            <feBlend mode="normal" in="SourceGraphic" in2="effect1_dropShadow_107_897" result="shape" />
        </filter>
        <radialGradient id="paint0_radial_107_897" cx="0" cy="0" r="1" gradientUnits="userSpaceOnUse"
            gradientTransform="translate(57) rotate(90) scale(132.778 125.459)">
            <stop offset="0.0344584" stop-color="#FD7A3D" />
            <stop offset="0.517229" stop-color="#FC0B0B" />
            <stop offset="1" stop-color="#BB054E" />
        </radialGradient>
        <linearGradient id="paint1_linear_107_897" x1="56.9999" y1="-2.47827" x2="56.9999" y2="116.478"
            gradientUnits="userSpaceOnUse">
            <stop stop-color="#E0736C" />
            <stop offset="1" stop-color="#ED3124" />
        </linearGradient>
    </defs>
</svg>